<svg xmlns="http://www.w3.org/2000/svg" version="1.1" xmlns:xlink="http://www.w3.org/1999/xlink" xmlns:svgjs="http://svgjs.dev/svgjs" width="100%" height="100%" viewBox="0 0 1000 600"><rect width="1000" height="600" x="0" y="0" fill="#f4a950"/><g><rect width="333.3333333333333" height="333.3333333333333" rx="13.333333333333334" ry="13.333333333333334" y="196.90173096838106" fill="#161b21" transform="matrix(0.7155962557446397,0,0,0.7155962557446397,0,39.83180677601193)" x="174.67955017089844"/><path d="M262.8592091704571 429.27947887912137L262.8592091704571 429.27947887912137Q256.9400846236899 429.27947887912137 250.52281593189775 428.10737500847443Q244.0762446433394 426.96457373459367 239.65155253164713 424.4152478159365Q235.22686041995482 421.8952244940455 235.22686041995482 417.8807687370797L235.22686041995482 417.8807687370797Q235.22686041995482 417.47053238235316 235.75430716174594 416.73796746319886Q236.2817539035371 415.9760999472783 236.69199025826353 416.62075707613417L236.69199025826353 416.62075707613417Q239.4464343542839 419.58031934951777 244.19345503040412 421.36777775225437Q248.94047570652435 423.155236154991 254.30285091473422 423.88780107414533Q259.69452871971026 424.6496685900659 264.32433900876583 424.6496685900659L264.32433900876583 424.6496685900659Q274.02349853836944 424.6496685900659 282.1696204393659 422.0124348811102Q290.28643974359613 419.3752011721545 295.1213682100149 413.98352336717846Q299.9855992731998 408.5918455622024 299.9855992731998 400.59223664503685L299.9855992731998 400.59223664503685Q299.9855992731998 393.6182186146874 295.5609071615075 387.8163044549849Q291.1362150498152 382.01439029528245 284.6896437612569 376.21247613557995Q278.24307247269854 370.41056197587744 271.8258037809064 364.08120107438384Q265.3792324923481 357.7518401728902 260.95454038065577 350.0452572233864Q256.52984826896346 342.36797687064876 256.52984826896346 332.22927838955246L256.52984826896346 332.22927838955246Q256.52984826896346 324.43478764975015 260.8373299935911 317.57798000646534Q265.1741143149849 310.7211723631806 272.44115831299604 305.44670494526923Q279.7375049077734 300.1722375273579 288.3817709537948 297.21267525397434Q297.0260369998162 294.2531129805907 305.6703030458376 294.2531129805907L305.6703030458376 294.2531129805907Q315.80900152693386 294.2531129805907 320.878350767482 298.0624505601934Q325.9477000080301 301.84248554302985 325.9477000080301 311.9811840241261L325.9477000080301 311.9811840241261Q325.9477000080301 318.1054267482565 323.39837408937296 323.46780195646636Q320.878350767482 328.8594797614424 316.6587768331529 328.8594797614424L316.6587768331529 328.8594797614424Q315.80900152693386 328.8594797614424 314.9592262207148 328.12691484228804Q314.10945091449577 327.3650473263676 314.34387168862514 325.89991748805886L314.34387168862514 325.89991748805886Q314.7541080433516 321.68034355372976 315.164344398078 318.1054267482565Q315.60388334957065 314.5012073460171 315.60388334957065 311.7760658467629L315.60388334957065 311.7760658467629Q315.60388334957065 305.00716599377665 313.37688599534135 301.5201569786019Q311.17919123787834 298.0624505601934 305.05494851374795 298.0624505601934L305.05494851374795 298.0624505601934Q295.5609071615075 298.0624505601934 286.7994307284214 302.36993228482095Q278.03795429533534 306.70671660621474 272.3532505226975 314.17887878158916Q266.63924415329353 321.68034355372976 266.63924415329353 330.96926672860695L266.63924415329353 330.96926672860695Q266.63924415329353 338.14840293631966 271.09323886175207 344.6828820151765Q275.5179309734443 351.2173610940333 281.9351996652365 357.3416038181637Q288.3817709537948 363.4658465422942 294.91625003265165 369.6779970567231Q301.4507291115085 375.890147571152 305.904723819967 382.45392924677503Q310.32941593165924 388.98840832563184 310.32941593165924 396.37266271070774L310.32941593165924 396.37266271070774Q310.32941593165924 407.77137285274955 303.1502797239466 415.0384168507607Q295.97114351623395 422.30546084877193 285.0998801159833 425.7924698639467Q274.25791931249887 429.27947887912137 262.8592091704571 429.27947887912137ZM357.36008374136884 438.5684020539986L357.36008374136884 438.5684020539986Q351.2651436140046 438.5684020539986 347.57301642146666 430.7446087174301Q343.8808892289287 422.95011797762777 343.8808892289287 408.38672738483916L343.8808892289287 408.38672738483916Q343.8808892289287 400.38711846767364 345.8734658090286 388.66607976120395Q347.86604238912844 376.9450410547343 351.03072283987524 363.6709647196574Q354.19540329062204 350.3675857878143 358.12195125728937 337.8260743718917Q362.0191966271906 325.25526035920296 365.91644199709174 315.23377226517147Q369.8136873669929 305.21228417113986 372.9783678177397 299.9378167532285L372.9783678177397 299.9378167532285Q370.25322631848553 299.32246222113884 367.0885458677387 299.00013365671094Q363.92386541699193 298.67780509228305 363.27920828813603 297.62291160870075L363.27920828813603 297.62291160870075Q362.2243148045538 295.9526635930288 364.21689138465365 294.45823115795395Q366.2387705615197 292.99310131964523 371.3081198020678 292.99310131964523L371.3081198020678 292.99310131964523Q372.36301328565 292.99310131964523 373.41790676923233 292.99310131964523Q374.47280025281464 292.99310131964523 375.7328119137601 293.19821949700844L375.7328119137601 293.19821949700844Q376.7877053973424 291.4986688845703 377.93050667122316 290.0335390462616Q379.10261054187015 288.5684092079529 381.21239750903464 288.5684092079529L381.21239750903464 288.5684092079529Q383.3221844761992 288.5684092079529 384.1719597824183 290.5609857880528Q385.0217350886373 292.5535623681526 385.0217350886373 294.8977701094465L385.0217350886373 294.8977701094465Q391.35109599013094 296.36289994775524 400.20048021351556 299.6447907855668Q409.0498644369002 302.8973790266121 417.8113408699862 307.761610089797Q426.57281730307227 312.59653855621576 432.37473146277483 319.04310984477405Q438.17664562247734 325.4896811333324 438.17664562247734 333.6944082278612L438.17664562247734 333.6944082278612Q438.17664562247734 341.51820156442966 433.1072963819292 347.4080235144307Q428.037947141381 353.3271480611979 420.65369275630513 357.4295116084623Q413.2694383712292 361.5611777524928 406.11960476028275 364.08120107438384Q398.94046855257005 366.630526993041 394.72089461824095 367.8905386539864L394.72089461824095 367.8905386539864Q408.4345099048105 367.8905386539864 420.44857457894193 371.2603372820965Q432.4919418498395 374.63013591020655 439.96410402521394 381.16461498906335Q447.4655687973545 387.7283966646864 447.4655687973545 397.22243801692684L447.4655687973545 397.22243801692684Q447.4655687973545 405.01692875672916 442.3962195568064 410.81884291643166Q437.32687031625824 416.62075707613417 428.6826042702369 420.4300946557368Q420.03833822421547 424.2101296385733 409.28428521102956 425.9975880413099Q398.5009296010774 427.81434904081266 387.13152205580184 427.81434904081266L387.13152205580184 427.81434904081266Q385.2268532660005 427.81434904081266 383.4393948632639 427.81434904081266Q381.6226338637611 427.81434904081266 379.74726767072593 427.5799282666833L379.74726767072593 427.5799282666833Q375.5276937363969 427.3748100893201 370.7806730602766 426.96457373459367Q366.0336523841564 426.52503478310103 363.07409011077283 425.90968025101137L363.07409011077283 425.90968025101137Q362.0191966271906 425.7045620736481 360.3196460147525 424.7375763803644Q358.6493979990805 423.7998932838468 358.6493979990805 421.8952244940455L358.6493979990805 421.8952244940455Q358.6493979990805 419.58031934951777 361.3745394983347 420.19567388160743L361.3745394983347 420.19567388160743Q364.9787589005741 421.0454491878265 369.2862406252018 421.8952244940455Q373.62302494659554 422.74499980026457 380.1575040254524 423.36035433235423L380.1575040254524 423.36035433235423Q382.26729099261695 423.5947751064836 384.5821961371447 423.6826828967821Q386.89710128167246 423.7998932838468 389.2413090229664 423.7998932838468L389.2413090229664 423.7998932838468Q397.24091794013196 423.7998932838468 405.7972761958548 422.30546084877193Q414.3243318548115 420.8403310104632 421.5034680625242 417.7928609467811Q428.6826042702369 414.7160882863328 433.1072963819292 410.0862779972773Q437.53198849362144 405.42716511145557 437.53198849362144 398.89268603259876L437.53198849362144 398.89268603259876Q437.53198849362144 393.4131004373242 433.95707168814823 389.1935265029951Q430.38215488267497 384.973952568666 424.9904770776989 381.9264825049839Q419.5987992727229 378.8497098445356 413.91409550008507 376.85713326443573Q408.22939172744725 374.83525408756975 404.00981779311815 374.0147813781169L404.00981779311815 374.0147813781169Q398.2958114237142 372.7254671204052 392.4059894737132 372.19802037861405Q386.48686492694605 371.6705736368229 380.56774038017886 371.6705736368229L380.56774038017886 371.6705736368229Q373.82814312395874 371.6705736368229 367.0885458677387 372.4324411527435Q360.3196460147525 373.16500607189784 358.0047408702247 373.57524242662424L358.0047408702247 373.57524242662424Q356.94984738664243 378.2343553124459 355.25029677420434 386.146056439313Q353.58004875853237 394.05775756618 352.3200370975869 402.7020236122014Q351.03072283987524 411.3462896582228 351.03072283987524 418.0858869144429L351.03072283987524 418.0858869144429Q351.03072283987524 425.90968025101137 353.66795654883094 430.65670092713157Q356.3051902577866 435.40372160325177 358.6493979990805 435.81395795797823L358.6493979990805 435.81395795797823Q359.4698707085334 435.81395795797823 359.4698707085334 436.66373326419733L359.4698707085334 436.66373326419733Q359.4698707085334 438.5684020539986 357.36008374136884 438.5684020539986ZM359.4698707085334 368.3007750087129L359.4698707085334 368.3007750087129Q364.74433812644475 368.3007750087129 373.50581455953085 367.24588152513064Q382.26729099261695 366.19098804154834 391.9664505222206 363.7588725099559Q401.6656100518243 361.3560595751296 410.2219683075471 357.546721995527Q418.77832656326996 353.73738441592434 424.25791215854457 348.2577988206497Q429.73749775381907 342.77821322537517 429.73749775381907 335.5990770176625L429.73749775381907 335.5990770176625Q429.73749775381907 328.6543615840792 424.3458199488431 323.05756560173995Q418.9834447406332 317.46076961940065 410.95453322670147 313.3584060721363Q402.95492430953595 309.2267399281057 394.92601279560415 306.5015984288515Q386.89710128167246 303.74715433283114 381.4175156863979 302.48714267188564L381.4175156863979 302.48714267188564Q374.2383794786852 318.51566310298296 369.08112244783854 334.98372248557286Q363.92386541699193 351.4224792713966 359.4698707085334 368.3007750087129Z " fill="#f3a131" transform="matrix(0.7155962557446397,0,0,0.7155962557446397,0,39.83180677601193)"/><path d="M610.1285814830903 385.507728521351L610.1285814830903 385.507728521351Q606.1052112822846 385.507728521351 601.7432406190349 384.71102155089443Q597.3613522815235 383.9342322546993 594.35378346805 382.2013945939562Q591.3462146545764 380.48847460747453 591.3462146545764 377.7597532336608L591.3462146545764 377.7597532336608Q591.3462146545764 377.48090579400093 591.7047327912819 376.98296393746557Q592.0632509279873 376.4651044066688 592.3420983676472 376.90329324041994L592.3420983676472 376.90329324041994Q594.2143597482201 378.91497834082276 597.4410229785692 380.12995647076906Q600.6676862089184 381.34493460071536 604.3126205987573 381.8428764572507Q607.9774726628575 382.3607359880475 611.124465196161 382.3607359880475L611.124465196161 382.3607359880475Q617.7172153766893 382.3607359880475 623.2543288213626 380.5681453045202Q628.7715245917744 378.77555462099286 632.0579408449078 375.1107025568926Q635.3642747723027 371.4458504927923 635.3642747723027 366.0083254194261L635.3642747723027 366.0083254194261Q635.3642747723027 361.26791894520943 632.356705958829 357.3242194414493Q629.3491371453554 353.38051993768926 624.9672488078443 349.43682043392914Q620.585360470333 345.4931209301691 616.2233898070832 341.1909032897035Q611.841501469572 336.88868564923797 608.8339326560983 331.6503373184859Q605.8263638426248 326.4319066619953 605.8263638426248 319.54039136754585L605.8263638426248 319.54039136754585Q605.8263638426248 314.24229001400954 608.7542619590527 309.58155423683854Q611.7020777497421 304.92081845966754 616.641660966573 301.33563709261284Q621.6011618576651 297.75045572555825 627.4768757647824 295.7387706251554Q633.3525896718998 293.7270855247525 639.2283035790172 293.7270855247525L639.2283035790172 293.7270855247525Q646.1198188734666 293.7270855247525 649.5655765206913 296.3163831787364Q653.011334167916 298.8857631584589 653.011334167916 305.7772784529084L653.011334167916 305.7772784529084Q653.011334167916 309.940072373544 651.2784965071729 313.58500676338286Q649.5655765206913 317.24985882748314 646.6974314270476 317.24985882748314L646.6974314270476 317.24985882748314Q646.1198188734666 317.24985882748314 645.5422063198855 316.7519169709478Q644.9645937663045 316.23405744015105 645.1239351603958 315.23817372708027L645.1239351603958 315.23817372708027Q645.4027826000556 312.37002863343656 645.6816300397154 309.940072373544Q645.9803951536367 307.49019843939 645.9803951536367 305.6378547330784L645.9803951536367 305.6378547330784Q645.9803951536367 301.0368719786917 644.4666519097691 298.6666687415833Q642.972826340163 296.3163831787364 638.8100324195274 296.3163831787364L638.8100324195274 296.3163831787364Q632.356705958829 296.3163831787364 626.4013213546662 299.24428129516434Q620.445936750503 302.1920970858537 616.5819079437887 307.27110402251446Q612.6979614628128 312.37002863343656 612.6979614628128 318.683931374305L612.6979614628128 318.683931374305Q612.6979614628128 323.5637615683516 615.7254479505478 328.005402928647Q618.7330167640214 332.4470442889425 623.0949874272712 336.60983820957813Q627.4768757647824 340.7726321302138 631.9185171250779 344.9951790736337Q636.3601584853734 349.2177260170536 639.3876449731084 353.67928505161046Q642.395213786582 358.12092641190594 642.395213786582 363.1401803257824L642.395213786582 363.1401803257824Q642.395213786582 370.8881556134727 637.5153835925355 375.82773883030353Q632.6355533984888 380.7673220471343 625.246096247504 383.1375252842427Q617.8765567707806 385.507728521351 610.1285814830903 385.507728521351ZM686.9908864578894 382.2013945939562L686.9908864578894 382.2013945939562Q682.9675162570836 382.2013945939562 680.9757488309422 379.3332495003125Q678.9640637305392 376.4651044066688 678.3067804799125 372.680746297Q677.6694149035472 368.8764705130698 677.6694149035472 365.8689016995962L677.6694149035472 365.8689016995962Q677.6694149035472 362.8414152118612 678.0279330402527 359.91351709543324Q678.3864511769582 356.9657013047439 678.8246400107093 354.0975562111002L678.8246400107093 354.0975562111002Q677.3905674638875 355.9698175916732 674.8012698099036 359.33590454185224Q672.2119721559197 362.7019914920313 668.9255559027863 366.64569099579137Q665.6192219753914 370.5893904995515 662.1734643281668 374.11481884382187Q658.7476243552035 377.6203295138308 655.5209611248542 379.8511090311093Q652.294297894505 382.0619708741263 649.983847680181 382.0619708741263L649.983847680181 382.0619708741263Q647.9920802540396 382.0619708741263 647.4742207232428 380.20962716781474Q646.9762788667074 378.33736578724177 646.9762788667074 376.90329324041994L646.9762788667074 376.90329324041994Q646.9762788667074 370.4499667797216 649.5655765206913 363.2796040456123Q652.1349565004138 356.10924131150307 654.8636778742275 350.37295112421566L654.8636778742275 350.37295112421566Q655.5807141476384 348.7994548575639 657.0147866944603 346.0707334837501Q658.4488592412822 343.3420121099363 660.3808736446395 340.47386701629256Q662.3328057222581 337.6057219226489 664.4839145424908 335.75337821633735Q666.6350233627236 333.8811168357643 668.7861321829564 334.15996427542416L668.7861321829564 334.15996427542416Q670.3596284496082 333.16408056235343 671.8534540192143 332.36737359189686Q673.3671972630817 331.59058429570166 675.2394586436546 331.59058429570166L675.2394586436546 331.59058429570166Q676.3747660765553 331.59058429570166 679.0238167533234 332.3076205691126Q681.6927851043531 333.02465684252354 682.8280925372537 333.3035042821833L682.8280925372537 333.3035042821833Q683.4057050908348 332.1681968492827 684.5609301979968 331.59058429570166Q685.6962376308974 331.01297174212067 686.8514627380595 331.01297174212067L686.8514627380595 331.01297174212067Q687.9867701709601 331.01297174212067 688.4249590047111 331.15239546195056L688.4249590047111 331.15239546195056Q689.0025715582922 330.8735480222908 689.281418997952 330.8735480222908L689.281418997952 330.8735480222908Q690.1378789911928 330.8735480222908 690.436644105114 332.088526152237Q690.7154915447738 333.3035042821833 690.7154915447738 334.02054055559427L690.7154915447738 334.02054055559427Q690.7154915447738 335.89280193616725 690.2972203852842 337.32687448298907Q689.859031551533 338.76094702981095 689.1419952781221 340.47386701629256L689.1419952781221 340.47386701629256Q688.5643827245411 341.90793956311444 688.2058645878357 343.12291769306074Q687.8473464511302 344.3578134972684 686.5526976241382 345.3536972103392L686.5526976241382 345.3536972103392Q685.5568139110675 350.51237484404555 685.0588720545321 355.7507231747976Q684.5609301979968 360.98907150554965 684.5609301979968 366.28717285908596L684.5609301979968 366.28717285908596Q684.5609301979968 368.1594342396589 684.760106940611 370.7288142193814Q684.9792013574864 373.3181118733653 686.0547557676028 375.32979697376817Q687.1303101777193 377.34148207417104 689.4208427177819 377.34148207417104L689.4208427177819 377.34148207417104Q693.0060240848366 377.34148207417104 695.814416155696 374.6725137231415Q698.6028905522941 372.02346304637337 700.475151932867 369.59350678648076L700.475151932867 369.59350678648076Q700.7539993725268 369.1553179527296 701.1921882062779 368.65737609619424Q701.6104593657676 368.1594342396589 702.1880719193487 367.8606691257377L702.1880719193487 367.8606691257377L702.6262607530998 368.7370467932399Q702.6262607530998 370.1711193400618 701.1921882062779 372.16288676620326Q699.758115659456 374.17457186660613 698.025277998713 375.9671625501334Q696.3123580122314 377.7597532336608 695.1571329050694 378.61621322690155L695.1571329050694 378.61621322690155Q693.4442129185877 380.05028577372343 691.3727747954006 381.1258401838398Q689.281418997952 382.2013945939562 686.9908864578894 382.2013945939562ZM654.8636778742275 376.186256967009L654.8636778742275 376.186256967009Q655.7201378674683 376.186256967009 656.7359392548005 375.46922069359806Q657.7318229678713 374.7521844201871 658.3094355214523 374.17457186660613L658.3094355214523 374.17457186660613Q665.0416094218104 368.29885795948877 670.2799577525625 360.98907150554965Q675.5183060833145 353.67928505161046 679.3823348900289 345.7918860440903L679.3823348900289 345.7918860440903Q679.8205237237801 345.07484977067935 680.2587125575312 344.1984721031771Q680.6769837170209 343.3420121099363 680.8164074368508 342.4855521166955L680.8164074368508 342.4855521166955Q681.1151725507721 341.3303270095334 681.3940199904318 339.9759251597572Q681.6927851043531 338.621523309981 681.832208824183 337.46629820281896L681.832208824183 337.46629820281896Q681.6927851043531 336.7492619294081 680.2587125575312 336.17164937582703Q678.8246400107093 335.594036822246 677.1714730470119 335.23551868554057Q675.5183060833145 334.8770005488351 674.8012698099036 334.8770005488351L674.8012698099036 334.8770005488351Q672.0725484360898 334.8770005488351 670.0011103129027 337.10778006611355Q667.9097545154541 339.33855958339194 666.4756819686322 341.3303270095334L666.4756819686322 341.3303270095334Q664.7627619821506 343.9196246635173 662.5319824648722 348.08241858415295Q660.3211206218552 352.24521250478864 658.2297648244066 356.90594828195964Q656.1583267012195 361.56668405913064 654.8039248514433 365.8689016995962Q653.4296053274056 370.1711193400618 653.4296053274056 373.17868815353535L653.4296053274056 373.17868815353535Q653.4296053274056 373.8957244269463 653.6486997442812 375.0310318598469Q653.8677941611568 376.186256967009 654.8636778742275 376.186256967009ZM697.1688180054722 438.56841275375956L697.1688180054722 438.56841275375956Q695.1571329050694 438.56841275375956 693.4442129185877 437.63228206347304Q691.731292932106 436.6961513731866 690.2972203852842 435.26207882636476L690.2972203852842 435.26207882636476Q688.5643827245411 433.2703114002233 688.0664408680058 430.40216630657955Q687.5684990114703 427.5340212129359 687.5684990114703 425.08414727878187L687.5684990114703 425.08414727878187Q687.5684990114703 419.64662220541567 688.8631478384623 412.8945306307961Q690.1378789911928 406.162356730438 692.2292347886414 399.05174701911295Q694.3006729118285 391.96105498204935 696.5912054518911 385.42805782430537Q698.9016556662152 378.91497834082276 700.7539993725268 373.7563007071164L700.7539993725268 373.7563007071164Q699.897539379286 371.60519188688363 699.897539379286 369.1553179527296L699.897539379286 369.1553179527296Q699.897539379286 366.147749139256 701.2519412290621 364.93277100930976Q702.6262607530998 363.71779287936346 705.0562170129924 362.56256777220136L705.0562170129924 362.56256777220136Q708.063785826466 354.95401620434103 711.4497904509064 347.22595859091217Q714.8158774010856 339.47798330322183 718.102293654219 332.0088554551914L718.102293654219 332.0088554551914Q716.9669862213183 330.7341243024608 715.5329136744965 329.5788991952988Q714.0988411276746 328.42367408813675 712.6647685808528 327.427790375066L712.6647685808528 327.427790375066Q711.8083085876119 326.9896015413149 711.8083085876119 326.272565267904L711.8083085876119 326.272565267904Q711.8083085876119 324.9978341151734 713.1627104373881 323.92227970505706Q714.5171122871643 322.84672529494065 715.6723373943264 322.84672529494065L715.6723373943264 322.84672529494065Q716.8275625014884 322.84672529494065 718.4010587681402 324.34055086454674Q719.9745550347919 325.85429410841425 720.6915913082029 326.5713303818252L720.6915913082029 326.5713303818252Q721.2692038617839 325.27668155483326 722.1256638550246 323.12557273460044Q722.9821238482656 320.9744639143677 723.6991601216764 319.97858020129695L723.6991601216764 319.97858020129695Q724.5556201149172 318.8233550941349 726.2884577756604 317.8872244038484Q728.001377762142 316.95109371356193 729.4354503089639 316.95109371356193L729.4354503089639 316.95109371356193Q731.3077116895369 316.95109371356193 731.3077116895369 318.38516626038376L731.3077116895369 318.38516626038376Q731.3077116895369 318.8233550941349 730.451251696296 320.6159457776622Q729.5748740287938 322.40853646118956 728.4395665958931 324.5596452814223Q727.2843414887311 326.7107541016551 726.2884577756604 328.58301548222806Q725.2726563883282 330.4353591885396 724.9938089486684 331.15239546195056L724.9938089486684 331.15239546195056Q728.4395665958931 335.0363419429264 731.9450772659021 340.11534887958715Q735.4705056101725 345.21427349050924 737.9004618700651 350.73146926092113Q740.3304181299577 356.24866503133296 740.3304181299577 361.56668405913064L740.3304181299577 361.56668405913064Q740.3304181299577 367.00420913249684 737.462273036314 371.7446156067135Q734.5941279426702 376.4651044066688 729.9333921654993 379.3332495003125Q725.2726563883282 382.2013945939562 719.6957075951321 382.2013945939562L719.6957075951321 382.2013945939562Q715.9511848339862 382.2013945939562 711.8680616103961 381.48435832054525Q707.7849383868062 380.7673220471343 704.6379458535026 378.47678950707166L704.6379458535026 378.47678950707166Q702.9051081927596 383.21719598128834 700.6942463497426 389.3120043052812Q698.4634668324642 395.4068126292741 696.5314524291069 402.07923350684797Q694.5994380257497 408.7317367101605 693.3047891987578 415.0456394510289Q692.0101403717658 421.35954219189733 692.0101403717658 426.3787961057738L692.0101403717658 426.3787961057738Q692.0101403717658 427.9522923724256 692.2889878114256 430.18307188970397Q692.5877529253469 432.393933732721 693.6633073354632 434.04710069641845Q694.7388617455796 435.70026766011586 696.8899705658124 435.70026766011586L696.8899705658124 435.70026766011586Q699.0410793860451 435.70026766011586 700.1763868189458 434.18652441624835Q701.3316119261078 432.69269884664226 701.9092244796889 432.69269884664226L701.9092244796889 432.69269884664226Q702.0486481995188 432.69269884664226 702.0486481995188 432.97154628630204L702.0486481995188 432.97154628630204Q702.0486481995188 433.5491588398831 700.8336700695725 434.7641369698294Q699.6186919396262 435.97911509977564 699.180503105875 436.6961513731866L699.180503105875 436.6961513731866Q699.319926825705 436.8554927672779 699.319926825705 437.2737639267676L699.319926825705 437.2737639267676Q699.319926825705 437.8513764803486 699.0410793860451 438.42898903392967L699.0410793860451 438.42898903392967Q698.6028905522941 438.56841275375956 698.1049486957587 438.56841275375956Q697.6070068392233 438.56841275375956 697.1688180054722 438.56841275375956ZM720.6915913082029 378.91497834082276L720.6915913082029 378.91497834082276Q726.2884577756604 378.91497834082276 730.5906754161259 375.9671625501334Q734.8928930565914 373.03926443370545 734.8928930565914 366.86478541266695L734.8928930565914 366.86478541266695Q734.8928930565914 360.84964778571975 732.9608786532342 355.39220503809213Q731.0089465756156 349.9347622904645 728.0810484591877 345.1346027934636Q725.1332326684983 340.33444329646267 722.1256638550246 336.47041448974824L722.1256638550246 336.47041448974824Q719.5363662010408 341.76851584328455 717.0267392441026 347.78365347023174Q714.5171122871643 353.8187087714404 712.2265797471016 359.4155752388979L712.2265797471016 359.4155752388979Q712.5253448610229 359.4155752388979 712.6647685808528 359.33590454185224Q712.8041923006826 359.25623384480656 712.9436160205125 359.25623384480656L712.9436160205125 359.25623384480656Q713.9594174078447 359.25623384480656 713.9594174078447 360.2720352321387L713.9594174078447 360.2720352321387Q713.9594174078447 362.12437893845026 712.8041923006826 362.7019914920313Q711.6489671935205 363.2796040456123 710.37423604079 363.99664031902324L710.37423604079 363.99664031902324Q709.358434653458 366.28717285908596 708.4223039631714 368.51795237636435Q707.5060909471464 370.7288142193814 706.6297132796442 373.17868815353535L706.6297132796442 373.17868815353535L706.7890546737354 373.3181118733653Q709.936047207039 376.4651044066688 713.2423811344338 377.7000002108765Q716.5287973875672 378.91497834082276 720.6915913082029 378.91497834082276ZM755.1093324319273 382.63958342770735L755.1093324319273 382.63958342770735Q749.8112310783911 382.63958342770735 747.938969697818 379.55234391718807Q746.066708317245 376.4651044066688 746.066708317245 371.60519188688363L746.066708317245 371.60519188688363Q746.066708317245 366.42659657891585 747.6601222581583 361.70610777896053Q749.23361852481 356.9657013047439 751.0859622311216 352.24521250478864L751.0859622311216 352.24521250478864Q750.0900785180509 351.5281762313777 749.2933715475942 350.37295112421566Q748.5165822513991 349.2177260170536 748.5165822513991 347.0666171968208L748.5165822513991 347.0666171968208Q748.5165822513991 344.63666093692825 751.3847273450427 340.83238515299803Q754.2528724386865 337.02810936906786 757.8380538057411 334.15996427542416L757.8380538057411 334.15996427542416Q759.4115500723929 332.8852331226936 762.0008477263767 331.37148987882614Q764.5702277060992 329.8577466349586 767.2989490799131 328.7821922248422Q770.0276704537268 327.7066378147258 771.7405904402085 327.7066378147258L771.7405904402085 327.7066378147258Q777.7756457414171 327.7066378147258 779.7674131675585 332.5864680087724Q781.7790982679614 337.46629820281896 781.2014857143804 344.1984721031771L781.2014857143804 344.1984721031771Q781.7790982679614 343.9196246635173 783.292841511829 343.3420121099363Q784.7866670814351 342.7643995563553 786.220739628257 342.2664576998199Q787.6548121750787 341.76851584328455 787.953577289 341.76851584328455L787.953577289 341.76851584328455Q788.670613562411 341.76851584328455 789.3876498358218 342.4855521166955Q790.1046861092327 343.20258839010637 790.1046861092327 343.9196246635173L790.1046861092327 343.9196246635173Q790.1046861092327 344.3578134972684 789.6664972754817 344.63666093692825L789.6664972754817 344.63666093692825L780.6437908350608 348.08241858415295Q779.7674131675585 352.5240599444484 777.8353987642014 358.3997738515657Q775.9033843608441 364.275487758683 772.676721130495 369.81260120335634Q769.4500579001458 375.32979697376817 765.0681695626346 378.974731363607Q760.7061988993848 382.63958342770735 755.1093324319273 382.63958342770735ZM762.0008477263767 348.9388785773938L762.0008477263767 348.9388785773938Q765.5860290934314 348.9388785773938 768.8724453465647 348.1421716069372Q772.1787792739597 347.36538231074206 776.042808080674 346.0707334837501L776.042808080674 346.0707334837501Q776.1822318005039 345.3536972103392 776.2619024975496 344.49723721709836Q776.3415731945953 343.6407772238575 776.3415731945953 342.9237409504466L776.3415731945953 342.9237409504466Q776.3415731945953 341.1909032897035 775.9830550578898 339.03979446947073Q775.6245369211844 336.88868564923797 774.548982511068 335.23551868554057Q773.4734281009515 333.60226939610453 771.3223192807188 333.60226939610453L771.3223192807188 333.60226939610453Q768.8724453465647 333.60226939610453 766.5819128065021 335.4546131024161Q764.2913802664394 337.32687448298907 762.3593658630822 339.89625446271157Q760.4074337854636 342.4855521166955 759.0530319356874 344.91550837658804Q757.6986300859112 347.36538231074206 757.1210175323301 348.5006897436427L757.1210175323301 348.5006897436427Q759.6903975120526 348.9388785773938 762.0008477263767 348.9388785773938ZM756.4039812589192 378.77555462099286L756.4039812589192 378.77555462099286Q760.4074337854636 378.77555462099286 763.4946732959828 376.1065862699633Q766.5819128065021 373.4575355931952 768.8724453465647 369.1553179527296Q771.1629778866275 364.8531003122641 772.8161448503249 359.8338463983876Q774.4693118140223 354.81459248451114 775.4651955270931 349.9347622904645L775.4651955270931 349.9347622904645Q771.1629778866275 351.3688348372864 765.6457821162156 352.743154361324Q760.1285863458038 354.0975562111002 755.5475212656784 353.51994365751915L755.5475212656784 353.51994365751915Q754.1134487188566 357.403890138495 753.0378943087402 362.2837203325416Q751.9623398986238 367.1436328523268 751.9623398986238 371.3064267729624L751.9623398986238 371.3064267729624Q751.9623398986238 373.5969593130251 752.7391291948189 376.186256967009Q753.5358361652756 378.77555462099286 756.4039812589192 378.77555462099286ZM787.6548121750787 383.7948085348694L787.6548121750787 383.7948085348694Q786.5195047421781 383.7948085348694 786.5195047421781 382.91843086736714L786.5195047421781 382.91843086736714L788.3718484484897 377.48090579400093Q789.0888847219006 375.60864441342795 789.3079791387762 373.81605372990066Q789.5270735556518 372.02346304637337 790.1046861092327 370.1711193400618L790.1046861092327 370.1711193400618Q790.9611461024735 366.42659657891585 791.9570298155443 362.7019914920313Q792.9728312028765 358.9773864051468 794.1081386357771 355.39220503809213L794.1081386357771 355.39220503809213Q794.5463274695283 354.0975562111002 795.2633637429392 351.6675999512076Q795.9804000163501 349.2177260170536 796.6177655927154 346.70809906011533Q797.275048843342 344.1984721031771 797.275048843342 342.9237409504466L797.275048843342 342.9237409504466Q797.275048843342 342.20670467703565 796.3389181530556 342.34612839686554Q795.4027874627691 342.4855521166955 795.2633637429392 342.04736328294433L795.2633637429392 342.04736328294433Q796.2592474560099 339.47798330322183 796.9762837294209 336.7492619294081Q797.6933200028317 334.02054055559427 798.7091213901639 331.45116057587177L798.7091213901639 331.45116057587177Q799.1273925496536 330.29593546870973 800.9996539302266 329.2203810585933Q802.8719153107995 328.14482664847696 804.0072227437001 328.14482664847696L804.0072227437001 328.14482664847696Q806.0189078441031 328.14482664847696 806.0189078441031 330.7341243024608L806.0189078441031 330.7341243024608Q806.0189078441031 333.02465684252354 804.863682736941 337.7451456424788Q803.7283753040404 342.4855521166955 801.935784620513 348.08241858415295Q800.1431939369858 353.67928505161046 798.4900269732883 358.8977157081011Q796.836860009591 364.13606403885314 795.7015525766902 367.442397966248L795.7015525766902 367.442397966248Q800.2826176568157 363.1401803257824 804.863682736941 357.98150269207605Q809.4646654913278 352.8029073841082 813.2689412752579 347.5844767276176Q817.0532993849267 342.34612839686554 819.2044082051596 338.0439107564L819.2044082051596 338.0439107564Q819.2044082051596 336.47041448974824 821.295764002608 335.89280193616725Q823.3672021257951 335.3151893825862 824.5224272329572 335.594036822246L824.5224272329572 335.594036822246Q825.1000397865382 335.3151893825862 825.378887226198 335.3151893825862L825.378887226198 335.3151893825862Q826.67353605319 335.3151893825862 827.0320541898955 337.24720378594344Q827.3905723266009 339.1792181893006 827.3905723266009 340.0555958568029L827.3905723266009 340.0555958568029Q827.3905723266009 341.62909212345465 827.0320541898955 344.4175665200527Q826.67353605319 347.22595859091217 824.940698392447 348.08241858415295L824.940698392447 348.08241858415295Q824.801274672617 349.2177260170536 824.801274672617 350.4526218212613Q824.801274672617 351.6675999512076 824.801274672617 352.8029073841082L824.801274672617 352.8029073841082Q824.801274672617 354.5357450448513 825.0203690894925 358.4794445486114Q825.2394635063681 362.42314405237147 825.956499779779 366.72536169283705Q826.67353605319 371.0275793333026 828.2470323198418 374.11481884382187Q829.8205285864935 377.1821406800797 832.5492499603073 377.1821406800797L832.5492499603073 377.1821406800797Q835.1385476142912 377.1821406800797 837.0705620176484 375.74806813325785Q839.0025764210056 374.313995586436 840.4366489678275 372.46165188012446Q841.8707215146493 370.5893904995515 842.7271815078901 369.1553179527296Q843.583641501131 367.7212454059078 844.0218303348821 367.7212454059078L844.0218303348821 367.7212454059078Q844.738866608293 367.7212454059078 844.738866608293 368.5777053991486L844.738866608293 368.5777053991486Q844.738866608293 370.5893904995515 842.6674284851059 373.4575355931952Q840.5760726876574 376.3256806868389 839.1420001408355 377.7597532336608L839.1420001408355 377.7597532336608Q837.5685038741838 379.4925908944038 835.4173950539509 380.7673220471343Q833.2662862337182 382.0619708741263 830.8363299738256 382.0619708741263L830.8363299738256 382.0619708741263Q826.5341123333601 382.0619708741263 824.084238399206 378.974731363607Q821.6542821393135 375.9074095273492 820.4393040093672 371.38609747000805Q819.2044082051596 366.86478541266695 818.8458900684541 362.20404963549595Q818.4873719317486 357.5433138583249 818.4873719317486 354.5357450448513L818.4873719317486 354.5357450448513Q818.4873719317486 351.8070236710375 818.5670426287943 349.2177260170536Q818.64671332584 346.6483460373311 818.7861370456698 344.0590483833472L818.7861370456698 344.0590483833472Q816.4956045056072 348.08241858415295 813.4681180178721 351.8070236710375Q810.4605492043985 355.531628757922 807.5924041107548 359.11681012497667L807.5924041107548 359.11681012497667Q803.2901864702892 363.99664031902324 799.1273925496536 369.73293050631065L799.1273925496536 369.73293050631065Q798.4103562762426 370.7288142193814 797.7729906998774 372.103133743419Q797.1356251235121 373.4575355931952 796.11982373618 374.47333698052734L796.11982373618 374.47333698052734L795.8409762965202 374.7521844201871Q794.825174909188 377.48090579400093 794.5463274695283 378.91497834082276Q794.2674800298685 380.34905088764464 791.6781823758845 382.0619708741263L791.6781823758845 382.0619708741263Q790.8217223826437 382.63958342770735 789.8059209953116 383.21719598128834Q788.8100372822408 383.7948085348694 787.6548121750787 383.7948085348694ZM858.8007446368517 391.82163126221946L858.8007446368517 391.82163126221946Q854.6379507162162 391.82163126221946 852.1283237592779 386.5036122344217Q849.6186968023396 381.20551088088547 849.6186968023396 371.3064267729624L849.6186968023396 371.3064267729624Q849.6186968023396 365.8689016995962 850.9730986521158 357.90183199503036Q852.3474181761535 349.9347622904645 854.4985269963862 340.9120558500437Q856.6496358166189 331.8694317353615 859.2986864933871 323.344667151476Q861.9477371701553 314.79998489332917 864.5967878469235 307.98814029592535Q867.2458385236915 301.1762956985216 869.3969473439244 297.59111433146694L869.3969473439244 297.59111433146694Q867.5446036376128 297.1728431719772 865.39349481738 296.9537487551017Q863.2423859971473 296.7346543382261 862.8041971633961 296.01761806481517L862.8041971633961 296.01761806481517Q862.0871608899852 294.88231063191455 863.4614804140228 293.8665092445824Q864.8158822637989 292.8706255315117 868.2616399110236 292.8706255315117L868.2616399110236 292.8706255315117Q868.9786761844346 292.8706255315117 869.6957124578455 292.8706255315117Q870.4127487312564 292.8706255315117 871.2692087244973 293.01004925134157L871.2692087244973 293.01004925134157Q871.9862449979082 291.85482414417953 872.7829519683648 290.8589404311088Q873.55974126456 289.863056718038 874.9938138113819 289.863056718038L874.9938138113819 289.863056718038Q876.4278863582038 289.863056718038 877.0054989117848 291.2174585678142Q877.5831114653657 292.5718604175904 877.5831114653657 294.1652743585036L877.5831114653657 294.1652743585036Q881.8853291058313 295.16115807157433 887.9004667327786 297.3919375888528Q893.9355220339871 299.6027994318698 899.8709889638887 302.9091333592646Q905.8263735680516 306.19554961239805 909.7700730718118 310.57743794990927Q913.7137725755719 314.9593262874205 913.7137725755719 320.5362750806166L913.7137725755719 320.5362750806166Q913.7137725755719 325.85429410841425 910.2680149283472 329.8577466349586Q906.8421749553838 333.8811168357643 901.8229210415074 336.6695912323624Q896.8036671276309 339.47798330322183 891.9238369335842 341.1909032897035Q887.0440067395377 342.9237409504466 884.175861645894 343.7802009436874L884.175861645894 343.7802009436874Q893.497333200236 343.7802009436874 901.663579647416 346.0707334837501Q909.8497437688575 348.3612660238128 914.9287507055182 352.8029073841082Q920.0276753164403 357.2644664186651 920.0276753164403 363.71779287936346L920.0276753164403 363.71779287936346Q920.0276753164403 369.0158942328997 916.5819176692155 372.9595937366598Q913.1361600219908 376.90329324041994 907.2604461148735 379.4925908944038Q901.3847322077563 382.0619708741263 894.074945753817 383.2769490040726Q886.765159299878 384.5118448082803 879.0171840121876 384.5118448082803L879.0171840121876 384.5118448082803Q877.7225351851955 384.5118448082803 876.5075570552494 384.5118448082803Q875.292578925303 384.5118448082803 873.9979300983111 384.35250341418896L873.9979300983111 384.35250341418896Q871.1297850046674 384.21307969435907 867.9031217743182 383.9342322546993Q864.6764585439691 383.6354671407781 862.6647734435662 383.21719598128834L862.6647734435662 383.21719598128834Q861.9477371701553 383.07777226145845 860.7925120629932 382.4204890108318Q859.6572046300926 381.7831234344665 859.6572046300926 380.48847460747453L859.6572046300926 380.48847460747453Q859.6572046300926 378.91497834082276 861.5095483364041 379.3332495003125L861.5095483364041 379.3332495003125Q863.9594222705582 379.91086205389354 866.8873203869862 380.48847460747453Q869.8351361776754 381.0660871610556 874.2767775379709 381.48435832054525L874.2767775379709 381.48435832054525Q875.7108500847928 381.6436997146366 877.2843463514445 381.70345273742083Q878.8777602923576 381.7831234344665 880.4512565590094 381.7831234344665L880.4512565590094 381.7831234344665Q885.8887816323756 381.7831234344665 891.7047425167086 380.7673220471343Q897.5207034010418 379.7714383340636 902.380615920827 377.7000002108765Q907.2604461148735 375.60864441342795 910.2680149283472 372.46165188012446Q913.2955014160822 369.2947416725595 913.2955014160822 364.8531003122641L913.2955014160822 364.8531003122641Q913.2955014160822 361.12849522537954 910.8456274819282 358.26035013173583Q908.4156712220356 355.39220503809213 904.7508191579352 353.320766914905Q901.1058847680964 351.2294111174565 897.2219382871206 349.8750092676803Q893.3579094804061 348.5006897436427 890.4897643867624 347.94299486432305L890.4897643867624 347.94299486432305Q886.6058179057866 347.0666171968208 882.6023653792422 346.70809906011533Q878.5789951784365 346.3495809234099 874.5755426518922 346.3495809234099L874.5755426518922 346.3495809234099Q869.9745598975054 346.3495809234099 865.39349481738 346.8674404542067Q860.7925120629932 347.36538231074206 859.2190157963414 347.64422975040185L859.2190157963414 347.64422975040185Q858.5019795229306 350.81113995796676 857.3666720900299 356.1889120085487Q856.2114469828679 361.56668405913064 855.354986989627 367.442397966248Q854.4985269963862 373.3181118733653 854.4985269963862 377.89917695349067L854.4985269963862 377.89917695349067Q854.4985269963862 383.21719598128834 856.2911176799134 386.4438592116375Q858.0837083634408 389.6705224419867 859.6572046300926 389.9493698816465L859.6572046300926 389.9493698816465Q860.2348171836736 389.9493698816465 860.2348171836736 390.5269824352275L860.2348171836736 390.5269824352275Q860.2348171836736 391.82163126221946 858.8007446368517 391.82163126221946ZM860.2348171836736 344.0590483833472L860.2348171836736 344.0590483833472Q863.8199985507282 344.0590483833472 869.7554654806297 343.3420121099363Q875.7108500847928 342.6249758365254 882.3036002653209 340.971808872828Q888.9162681201105 339.33855958339194 894.7123113301823 336.7492619294081Q900.5282722145154 334.15996427542416 904.2528773014 330.4353591885396Q907.9774823882844 326.7107541016551 907.9774823882844 321.8309239076085L907.9774823882844 321.8309239076085Q907.9774823882844 317.11043510765325 904.3325479984455 313.3061593237231Q900.6676959343453 309.50188353979286 895.2102531867176 306.71340914319484Q889.7727281133514 303.90501707233534 884.3152853657239 302.0526733660238Q878.8777602923576 300.18041198545086 875.1332375312118 299.32395199221L875.1332375312118 299.32395199221Q870.2733250114266 310.2189198132038 866.7478966671562 321.4126527481188Q863.2423859971473 332.5864680087724 860.2348171836736 344.0590483833472ZM942.255799792179 382.63958342770735L942.255799792179 382.63958342770735Q936.9576984386426 382.63958342770735 935.0854370580697 379.55234391718807Q933.2131756774968 376.4651044066688 933.2131756774968 371.60519188688363L933.2131756774968 371.60519188688363Q933.2131756774968 366.42659657891585 934.8065896184099 361.70610777896053Q936.3800858850617 356.9657013047439 938.2324295913733 352.24521250478864L938.2324295913733 352.24521250478864Q937.2365458783025 351.5281762313777 936.4398389078459 350.37295112421566Q935.6630496116506 349.2177260170536 935.6630496116506 347.0666171968208L935.6630496116506 347.0666171968208Q935.6630496116506 344.63666093692825 938.5311947052944 340.83238515299803Q941.3993397989382 337.02810936906786 944.9845211659928 334.15996427542416L944.9845211659928 334.15996427542416Q946.5580174326445 332.8852331226936 949.1473150866284 331.37148987882614Q951.7166950663509 329.8577466349586 954.4454164401648 328.7821922248422Q957.1741378139785 327.7066378147258 958.8870578004601 327.7066378147258L958.8870578004601 327.7066378147258Q964.9221131016687 327.7066378147258 966.9138805278103 332.5864680087724Q968.9255656282131 337.46629820281896 968.3479530746321 344.1984721031771L968.3479530746321 344.1984721031771Q968.9255656282131 343.9196246635173 970.4393088720807 343.3420121099363Q971.9331344416867 342.7643995563553 973.3672069885085 342.2664576998199Q974.8012795353304 341.76851584328455 975.1000446492517 341.76851584328455L975.1000446492517 341.76851584328455Q975.8170809226626 341.76851584328455 976.5341171960736 342.4855521166955Q977.2511534694845 343.20258839010637 977.2511534694845 343.9196246635173L977.2511534694845 343.9196246635173Q977.2511534694845 344.3578134972684 976.8129646357334 344.63666093692825L976.8129646357334 344.63666093692825L967.7902581953124 348.08241858415295Q966.9138805278103 352.5240599444484 964.9818661244531 358.3997738515657Q963.0498517210958 364.275487758683 959.8231884907466 369.81260120335634Q956.5965252603976 375.32979697376817 952.2146369228863 378.974731363607Q947.8526662596364 382.63958342770735 942.255799792179 382.63958342770735ZM949.1473150866284 348.9388785773938L949.1473150866284 348.9388785773938Q952.7324964536831 348.9388785773938 956.0189127068165 348.1421716069372Q959.3252466342112 347.36538231074206 963.1892754409257 346.0707334837501L963.1892754409257 346.0707334837501Q963.3286991607556 345.3536972103392 963.4083698578013 344.49723721709836Q963.488040554847 343.6407772238575 963.488040554847 342.9237409504466L963.488040554847 342.9237409504466Q963.488040554847 341.1909032897035 963.1295224181415 339.03979446947073Q962.771004281436 336.88868564923797 961.6954498713196 335.23551868554057Q960.6198954612032 333.60226939610453 958.4687866409705 333.60226939610453L958.4687866409705 333.60226939610453Q956.0189127068165 333.60226939610453 953.7283801667538 335.4546131024161Q951.4378476266911 337.32687448298907 949.5058332233339 339.89625446271157Q947.5539011457153 342.4855521166955 946.1994992959392 344.91550837658804Q944.8450974461629 347.36538231074206 944.2674848925819 348.5006897436427L944.2674848925819 348.5006897436427Q946.8368648723043 348.9388785773938 949.1473150866284 348.9388785773938ZM943.550448619171 378.77555462099286L943.550448619171 378.77555462099286Q947.5539011457153 378.77555462099286 950.6411406562345 376.1065862699633Q953.7283801667538 373.4575355931952 956.0189127068165 369.1553179527296Q958.3094452468791 364.8531003122641 959.9626122105765 359.8338463983876Q961.6157791742739 354.81459248451114 962.6116628873447 349.9347622904645L962.6116628873447 349.9347622904645Q958.3094452468791 351.3688348372864 952.7922494764673 352.743154361324Q947.2750537060555 354.0975562111002 942.6939886259302 353.51994365751915L942.6939886259302 353.51994365751915Q941.2599160791083 357.403890138495 940.1843616689919 362.2837203325416Q939.1088072588755 367.1436328523268 939.1088072588755 371.3064267729624L939.1088072588755 371.3064267729624Q939.1088072588755 373.5969593130251 939.8855965550706 376.186256967009Q940.6823035255272 378.77555462099286 943.550448619171 378.77555462099286ZM985.9950124702455 382.63958342770735L985.9950124702455 382.63958342770735Q980.6969111167092 382.63958342770735 978.8246497361363 379.55234391718807Q976.9523883555632 376.4651044066688 976.9523883555632 371.60519188688363L976.9523883555632 371.60519188688363Q976.9523883555632 366.42659657891585 978.5458022964764 361.70610777896053Q980.1192985631282 356.9657013047439 981.9716422694397 352.24521250478864L981.9716422694397 352.24521250478864Q980.9757585563689 351.5281762313777 980.1790515859125 350.37295112421566Q979.4022622897172 349.2177260170536 979.4022622897172 347.0666171968208L979.4022622897172 347.0666171968208Q979.4022622897172 344.63666093692825 982.2704073833609 340.83238515299803Q985.1385524770046 337.02810936906786 988.7237338440593 334.15996427542416L988.7237338440593 334.15996427542416Q990.2972301107111 332.8852331226936 992.886527764695 331.37148987882614Q995.4559077444173 329.8577466349586 998.1846291182312 328.7821922248422Q1000.9133504920451 327.7066378147258 1002.6262704785266 327.7066378147258L1002.6262704785266 327.7066378147258Q1008.6613257797353 327.7066378147258 1010.6530932058768 332.5864680087724Q1012.6647783062797 337.46629820281896 1012.0871657526986 344.1984721031771L1012.0871657526986 344.1984721031771Q1012.6647783062797 343.9196246635173 1014.1785215501471 343.3420121099363Q1015.6723471197533 342.7643995563553 1017.1064196665751 342.2664576998199Q1018.540492213397 341.76851584328455 1018.8392573273181 341.76851584328455L1018.8392573273181 341.76851584328455Q1019.5562936007291 341.76851584328455 1020.27332987414 342.4855521166955Q1020.990366147551 343.20258839010637 1020.990366147551 343.9196246635173L1020.990366147551 343.9196246635173Q1020.990366147551 344.3578134972684 1020.5521773137998 344.63666093692825L1020.5521773137998 344.63666093692825L1011.5294708733791 348.08241858415295Q1010.6530932058768 352.5240599444484 1008.7210788025195 358.3997738515657Q1006.7890643991623 364.275487758683 1003.5624011688132 369.81260120335634Q1000.335737938464 375.32979697376817 995.9538496009527 378.974731363607Q991.591878937703 382.63958342770735 985.9950124702455 382.63958342770735ZM992.886527764695 348.9388785773938L992.886527764695 348.9388785773938Q996.4717091317495 348.9388785773938 999.758125384883 348.1421716069372Q1003.0644593122777 347.36538231074206 1006.9284881189922 346.0707334837501L1006.9284881189922 346.0707334837501Q1007.0679118388222 345.3536972103392 1007.1475825358677 344.49723721709836Q1007.2272532329134 343.6407772238575 1007.2272532329134 342.9237409504466L1007.2272532329134 342.9237409504466Q1007.2272532329134 341.1909032897035 1006.868735096208 339.03979446947073Q1006.5102169595026 336.88868564923797 1005.4346625493861 335.23551868554057Q1004.3591081392698 333.60226939610453 1002.207999319037 333.60226939610453L1002.207999319037 333.60226939610453Q999.758125384883 333.60226939610453 997.4675928448203 335.4546131024161Q995.1770603047576 337.32687448298907 993.2450459014003 339.89625446271157Q991.2931138237818 342.4855521166955 989.9387119740055 344.91550837658804Q988.5843101242294 347.36538231074206 988.0066975706484 348.5006897436427L988.0066975706484 348.5006897436427Q990.5760775503709 348.9388785773938 992.886527764695 348.9388785773938ZM987.2896612972374 378.77555462099286L987.2896612972374 378.77555462099286Q991.2931138237818 378.77555462099286 994.380353334301 376.1065862699633Q997.4675928448203 373.4575355931952 999.758125384883 369.1553179527296Q1002.0486579249457 364.8531003122641 1003.7018248886429 359.8338463983876Q1005.3549918523404 354.81459248451114 1006.3508755654112 349.9347622904645L1006.3508755654112 349.9347622904645Q1002.0486579249457 351.3688348372864 996.5314621545338 352.743154361324Q991.0142663841219 354.0975562111002 986.4332013039966 353.51994365751915L986.4332013039966 353.51994365751915Q984.9991287571747 357.403890138495 983.9235743470583 362.2837203325416Q982.8480199369419 367.1436328523268 982.8480199369419 371.3064267729624L982.8480199369419 371.3064267729624Q982.8480199369419 373.5969593130251 983.6248092331371 376.186256967009Q984.4215162035937 378.77555462099286 987.2896612972374 378.77555462099286ZM1018.6998336074882 383.9342322546993L1018.6998336074882 383.9342322546993Q1017.4051847804964 383.9342322546993 1017.4051847804964 382.91843086736714L1017.4051847804964 382.91843086736714L1019.2575284868078 377.48090579400093Q1019.9745647602188 375.46922069359806 1020.27332987414 373.4575355931952Q1020.5521773137998 371.4458504927923 1021.1297898673809 369.45408306665087L1021.1297898673809 369.45408306665087Q1022.1256735804516 365.2912891460152 1023.1414749677838 361.26791894520943Q1024.1373586808545 357.2644664186651 1025.2925837880166 353.24109621785936L1025.2925837880166 353.24109621785936Q1024.9938186740953 352.5240599444484 1023.8585112411946 350.37295112421566Q1022.7032861340326 348.2218423039829 1022.7032861340326 347.50480603057196L1022.7032861340326 347.50480603057196Q1022.7032861340326 344.3578134972684 1026.0096200614275 344.3578134972684L1026.0096200614275 344.3578134972684Q1027.005503774498 344.3578134972684 1027.583116328079 344.77608465675814L1027.583116328079 344.77608465675814Q1029.4553777086521 337.9044870365701 1031.7459102487148 329.8577466349586Q1034.0364427887775 321.8309239076085 1037.3427767161725 314.0829486199182Q1040.6291929693057 306.35489100648937 1045.6484468831823 300.18041198545086Q1050.6677007970586 294.0059329644123 1057.8380635311678 290.71951671127886L1057.8380635311678 290.71951671127886Q1059.570901191911 290.002480437868 1061.4232448982225 289.5045385813326Q1063.2955062787955 288.9866790505358 1065.147849985107 288.9866790505358L1065.147849985107 288.9866790505358Q1066.8806876458502 288.9866790505358 1069.2508908829586 289.70371532394677Q1071.6011764458055 290.4207515973577 1073.3340141065485 291.79507112139527Q1075.0469340930301 293.14947297117146 1075.0469340930301 295.3005817914042L1075.0469340930301 295.3005817914042Q1075.0469340930301 296.15704178464506 1074.6286629335405 296.5952306183962L1074.6286629335405 296.5952306183962Q1074.469321539449 296.7346543382261 1073.4734378263784 297.5313613086827Q1072.4775541133076 298.3081506048778 1071.4617527259757 299.02518687828876Q1070.465869012905 299.7422231516997 1070.1671038989837 299.901564545791L1070.1671038989837 299.901564545791Q1069.8882564593239 299.6027994318698 1069.8882564593239 299.4633757120399L1069.8882564593239 299.4633757120399Q1069.8882564593239 299.02518687828876 1070.3264452930748 298.6069157187991Q1070.7447164525647 298.16872688504793 1070.7447164525647 297.59111433146694L1070.7447164525647 297.59111433146694Q1070.7447164525647 296.15704178464506 1069.171220185913 294.9420636546988Q1067.5977239192612 293.7270855247525 1065.5860388188582 292.9303785542959Q1063.5743537184553 292.15358925810074 1062.2797048914636 292.15358925810074L1062.2797048914636 292.15358925810074Q1057.977487250998 292.15358925810074 1054.2528821641133 295.5196762082798Q1050.5282770772287 298.8857631584589 1047.4410375667096 304.4029589288707Q1044.3537980561903 309.940072373544 1041.7844180764678 316.5328225540722Q1039.1951204224838 323.12557273460044 1037.2631060191266 329.7183229151287Q1035.3310916157695 336.3110730956569 1033.8970190689477 341.8481865403302Q1032.4629465221258 347.36538231074206 1031.606486528885 350.51237484404555L1031.606486528885 350.51237484404555Q1031.8853339685447 351.5281762313777 1032.1044283854203 352.24521250478864Q1032.3235228022959 352.9622487781996 1032.3235228022959 352.9622487781996L1032.3235228022959 352.9622487781996Q1036.9045878824213 347.0666171968208 1042.999396206414 341.1909032897035Q1049.0942045304068 335.3151893825862 1055.2686835514455 331.01297174212067L1055.2686835514455 331.01297174212067Q1056.4039909843461 330.29593546870973 1058.1368286450893 330.29593546870973L1058.1368286450893 330.29593546870973Q1059.13271235816 330.29593546870973 1060.3476904881063 330.6544536054152Q1061.5626686180524 331.01297174212067 1061.5626686180524 332.3076205691126L1061.5626686180524 332.3076205691126Q1061.5626686180524 333.4429280020132 1059.849748631571 335.0363419429264Q1058.1368286450893 336.60983820957813 1056.0454728476407 337.9044870365701Q1053.9740347244535 339.1792181893006 1053.1175747312127 339.7568307428817L1053.1175747312127 339.7568307428817Q1048.2377445371662 343.0631646702765 1042.9197255093684 347.0666171968208Q1037.621624155832 351.0899873976266 1033.4588302351965 355.11335759843234L1033.4588302351965 355.11335759843234Q1034.8929027820184 357.6827375781548 1037.3427767161725 361.3475896422551Q1039.7727329760648 364.99252403209397 1042.561207372663 368.51795237636435Q1045.3695994435225 372.02346304637337 1048.1580738401206 374.39366628348165Q1050.9664659109799 376.76386952059005 1053.2569984510426 376.76386952059005L1053.2569984510426 376.76386952059005Q1055.4081072712754 376.76386952059005 1056.6230854012217 375.0310318598469Q1057.8380635311678 373.3181118733653 1058.4953467817948 371.08733235608685Q1059.13271235816 368.8764705130698 1059.4115597978198 367.30297424641805L1059.4115597978198 367.30297424641805Q1059.570901191911 367.00420913249684 1059.770077934525 365.9286547223805Q1059.9891723514006 364.8531003122641 1060.566784904982 364.8531003122641L1060.566784904982 364.8531003122641Q1061.2838211783928 364.8531003122641 1061.5029155952682 365.4307128658451Q1061.7220100121438 366.0083254194261 1061.7220100121438 366.5859379730071L1061.7220100121438 366.5859379730071Q1061.7220100121438 366.86478541266695 1061.642339315098 367.1436328523268Q1061.5626686180524 367.442397966248 1061.5626686180524 367.7212454059078L1061.5626686180524 367.7212454059078Q1061.2838211783928 370.4499667797216 1060.9253030416871 373.8957244269463Q1060.566784904982 377.34148207417104 1058.415676084749 379.4925908944038L1058.415676084749 379.4925908944038Q1055.9857198248565 381.9225471542964 1052.8188096172914 381.9225471542964L1052.8188096172914 381.9225471542964Q1049.6718170839881 381.9225471542964 1046.305730133809 379.69176763701796Q1042.9197255093684 377.48090579400093 1039.8524036731105 373.95547744973055Q1036.7651641625914 370.4499667797216 1034.3152902284373 366.5062672759615Q1031.8853339685447 362.56256777220136 1030.311837701893 359.25623384480656L1030.311837701893 359.25623384480656Q1029.594801428482 360.98907150554965 1028.6586707381955 363.55845148527214Q1027.7225400479092 366.147749139256 1027.005503774498 368.65737609619424Q1026.2884675010873 371.16700305313253 1026.0096200614275 372.46165188012446L1026.0096200614275 372.46165188012446Q1026.5872326150084 373.4575355931952 1026.5872326150084 374.891608140017L1026.5872326150084 374.891608140017Q1026.5872326150084 377.48090579400093 1025.7108549475063 379.2734964775282Q1024.8543949542654 381.0660871610556 1022.7032861340326 382.3607359880475L1022.7032861340326 382.3607359880475Q1021.8468261407918 382.91843086736714 1020.8509424277211 383.4362903981639Q1019.8351410403889 383.9342322546993 1018.6998336074882 383.9342322546993ZM1071.1829052863159 382.0619708741263L1071.1829052863159 382.0619708741263Q1068.593607632332 382.0619708741263 1068.593607632332 379.91086205389354L1068.593607632332 379.91086205389354Q1068.593607632332 378.1979420674119 1070.96381086944 376.98296393746557Q1073.3340141065485 375.74806813325785 1076.7001010567276 374.891608140017Q1080.0661880069067 374.0351481467762 1083.0737568203804 373.5969593130251Q1086.1012433081153 373.17868815353535 1087.3759744608458 373.03926443370545L1087.3759744608458 373.03926443370545Q1088.0930107342567 372.32222816029457 1088.5311995680079 371.38609747000805Q1088.9693884017588 370.4499667797216 1088.9693884017588 369.45408306665087L1088.9693884017588 369.45408306665087Q1088.9693884017588 368.29885795948877 1088.3121051511323 367.5021509890322Q1087.674739574767 366.72536169283705 1086.6589381874348 366.147749139256L1086.6589381874348 366.147749139256Q1084.0895582077123 364.5742528726043 1080.2056117267366 361.98495521862037Q1076.3415829200221 359.4155752388979 1073.393767129333 356.1889120085487Q1070.465869012905 352.9622487781996 1070.465869012905 349.5164911309748L1070.465869012905 349.5164911309748Q1070.465869012905 347.50480603057196 1071.4617527259757 346.3495809234099L1071.4617527259757 346.3495809234099Q1074.0510503799596 343.0631646702765 1078.1341736035495 338.98004144668647Q1082.2172968271395 334.8770005488351 1087.0174563241403 331.94910243240713Q1091.8375334954026 329.00128664171774 1096.279174855698 329.00128664171774L1096.279174855698 329.00128664171774Q1100.2826273822425 329.00128664171774 1101.1590050497448 330.29593546870973Q1102.0154650429854 331.59058429570166 1102.0154650429854 335.1757656627563L1102.0154650429854 335.1757656627563Q1102.0154650429854 337.6057219226489 1101.1590050497448 340.55353771333824Q1100.2826273822425 343.4814358297662 1097.57382368269 344.63666093692825L1097.57382368269 344.63666093692825L1097.2750585687688 344.63666093692825Q1096.8567874092791 344.63666093692825 1096.7771167122335 343.28225908715206Q1096.6974460151878 341.90793956311444 1096.6974460151878 340.7726321302138L1096.6974460151878 340.7726321302138Q1096.6974460151878 339.89625446271157 1096.6974460151878 338.1833344762299Q1096.6974460151878 336.47041448974824 1095.9804097417768 334.9566712458807Q1095.263373468366 333.4429280020132 1093.2716060422244 333.4429280020132L1093.2716060422244 333.4429280020132Q1091.2599209418217 333.4429280020132 1088.5311995680079 334.67782380622094Q1085.802478194194 335.89280193616725 1083.1534275174258 337.9642400593543Q1080.5043768406579 340.0555958568029 1078.7715391799147 342.34612839686554Q1077.058619193433 344.63666093692825 1077.058619193433 346.787769757161L1077.058619193433 346.787769757161Q1077.058619193433 350.37295112421566 1079.7076698702012 352.8029073841082Q1082.3567205469694 355.25278131826224 1085.941901914024 357.1051250245738Q1089.5270832810786 358.9773864051468 1092.1960516321083 360.98907150554965Q1094.8451023088762 363.0007566059525 1094.8451023088762 365.7095603055049L1094.8451023088762 365.7095603055049Q1094.8451023088762 367.7212454059078 1093.829300921544 369.5138360894351Q1092.8334172084733 371.3064267729624 1091.5387683814815 372.74049931978425L1091.5387683814815 372.74049931978425Q1092.9728409283034 372.60107559995436 1094.4865841721708 372.5214049029087Q1095.9804097417768 372.46165188012446 1097.4144822885987 372.46165188012446L1097.4144822885987 372.46165188012446Q1098.7091311155907 372.46165188012446 1098.7091311155907 373.17868815353535L1098.7091311155907 373.17868815353535Q1098.7091311155907 373.8957244269463 1098.290859956101 374.11481884382187Q1097.8526711223499 374.313995586436 1097.135634848939 374.47333698052734L1097.135634848939 374.47333698052734Q1094.9845260287061 374.7521844201871 1092.7537465114278 375.0310318598469Q1090.5428846684108 375.32979697376817 1088.391775848178 375.74806813325785L1088.391775848178 375.74806813325785Q1084.3684056473721 379.3332495003125 1080.5043768406579 380.7075690243501Q1076.620430359682 382.0619708741263 1071.1829052863159 382.0619708741263ZM1115.778577957623 383.35661970111823L1115.778577957623 383.35661970111823Q1114.623352850461 383.35661970111823 1113.707139834436 381.6436997146366Q1112.7710091441495 379.91086205389354 1112.7710091441495 378.91497834082276L1112.7710091441495 378.91497834082276Q1112.7710091441495 376.3256806868389 1115.340389123872 375.32979697376817L1115.340389123872 375.32979697376817Q1115.918001677453 374.6127607003572 1117.650839338196 373.5969593130251Q1119.3637593246776 372.60107559995436 1121.156350008205 371.7446156067135Q1122.9489406917323 370.8881556134727 1123.8054006849732 370.8881556134727L1123.8054006849732 370.8881556134727Q1123.944824404803 370.8881556134727 1124.243589518724 371.16700305313253L1124.243589518724 371.16700305313253Q1123.8054006849732 371.7446156067135 1123.168035108608 372.3819811830788Q1122.5107518579812 373.03926443370545 1122.0924806984915 373.7563007071164L1122.0924806984915 373.7563007071164Q1121.2360207052507 375.0310318598469 1120.5189844318397 377.34148207417104Q1119.8019481584288 379.6320146142337 1118.7861467710968 381.48435832054525Q1117.790263058026 383.35661970111823 1115.778577957623 383.35661970111823ZM1145.6152540012222 383.6354671407781L1144.59945261389 383.6354671407781Q1140.1578112535944 383.6354671407781 1136.57262988654 381.34493460071536L1136.57262988654 381.34493460071536Q1136.43320616671 381.9225471542964 1136.2937824468802 382.3607359880475Q1136.134441052789 382.77900714753724 1135.4174047793779 382.77900714753724L1135.4174047793779 382.77900714753724Q1133.7044847928962 382.77900714753724 1132.1907415490286 381.1258401838398Q1130.6969159794226 379.4925908944038 1130.6969159794226 377.89917695349067L1130.6969159794226 377.89917695349067Q1130.6969159794226 376.90329324041994 1131.0554341161283 374.891608140017Q1131.4139522528335 372.87992303961414 1132.051317829199 371.0275793333026Q1132.7086010798255 369.1553179527296 1133.4256373532364 368.4382816793187L1133.4256373532364 368.4382816793187Q1134.9991336198882 361.4073426650394 1136.6523005835857 354.45607434780567Q1138.2855498730216 347.50480603057196 1140.0183875337648 340.47386701629256L1140.0183875337648 340.47386701629256Q1141.7313075202464 333.8811168357643 1143.9620870375247 326.4916596847795Q1146.1729488805418 319.1022025337947 1149.399612110891 312.0115104967311Q1152.6262753412402 304.92081845966754 1157.4463525125025 299.24428129516434Q1162.2465120095032 293.5876618049226 1168.9786859098615 290.58009299144896L1168.9786859098615 290.58009299144896Q1173.420327270157 288.56840789104615 1178.0213100245437 288.56840789104615L1178.0213100245437 288.56840789104615Q1179.5948062911955 288.56840789104615 1181.745915111428 289.2057734674114Q1183.897023931661 289.863056718038 1185.470520198313 291.1377878707686Q1187.0440164649644 292.4324366977605 1187.0440164649644 294.44412179816345L1187.0440164649644 294.44412179816345Q1187.0440164649644 295.3005817914042 1186.6257453054748 295.7387706251554L1186.6257453054748 295.7387706251554Q1186.3269801915537 296.01761806481517 1185.191672758653 296.9537487551017Q1184.036447651491 297.88987944538815 1182.9608932413746 298.746339438629Q1181.8853388312582 299.6027994318698 1181.6064913915984 299.6027994318698L1181.6064913915984 299.6027994318698Q1181.307726277677 299.6027994318698 1181.307726277677 299.02518687828876L1181.307726277677 299.02518687828876Q1181.307726277677 298.6069157187991 1181.6064913915984 298.3081506048778Q1181.8853388312582 298.02930316521804 1181.8853388312582 297.45169061163705L1181.8853388312582 297.45169061163705Q1181.8853388312582 296.01761806481517 1180.391513261652 294.80263993486886Q1178.8777700177845 293.5876618049226 1176.8660849173816 292.790954834466Q1174.854399816979 292.01416553827084 1173.5796686642482 292.01416553827084L1173.5796686642482 292.01416553827084Q1168.9786859098615 292.01416553827084 1165.0349864061013 295.79852364793965Q1161.0912869023414 299.6027994318698 1157.804870649208 305.91670217273827Q1154.498536721813 312.23060491360667 1151.849486045045 319.7594857844214Q1149.2004353682769 327.28836665523613 1147.049326548044 334.81724752605083Q1144.8982177278112 342.34612839686554 1143.384474483944 348.660031137734Q1141.870731240076 354.95401620434103 1140.7354238071757 358.698538965487L1140.7354238071757 358.698538965487Q1141.7313075202464 356.82627758491395 1143.7429926206491 353.38051993768926Q1145.754677721052 349.9347622904645 1148.40372839782 345.9313097639202Q1151.0527790745882 341.90793956311444 1154.000594865278 338.3227581960598Q1156.9284929817059 334.7375768290052 1159.6572143555195 332.4470442889425Q1162.3859357293331 330.15651174887984 1164.537044549566 330.15651174887984L1164.537044549566 330.15651174887984Q1166.6881533697988 330.15651174887984 1167.5446133630398 332.2279498720669Q1168.4010733562804 334.3193056695155 1168.5604147503718 336.8289326264537Q1168.6998384702015 339.33855958339194 1168.6998384702015 340.7726321302138L1168.6998384702015 340.7726321302138Q1168.6998384702015 344.49723721709836 1168.2616496364506 348.3612660238128L1168.2616496364506 348.3612660238128Q1168.8392621900316 348.08241858415295 1170.2733347368535 347.36538231074206Q1171.7074072836754 346.6483460373311 1172.2850198372562 346.6483460373311L1172.2850198372562 346.6483460373311Q1173.1414798304972 346.6483460373311 1173.1414798304972 347.50480603057196L1173.1414798304972 347.50480603057196Q1173.1414798304972 348.9388785773938 1171.0700417073099 349.43682043392914Q1168.9786859098615 349.9347622904645 1167.8433784769609 350.51237484404555L1167.8433784769609 350.51237484404555Q1166.8275770896287 356.54743014525417 1164.8158919892257 363.1401803257824Q1162.8241245630843 369.73293050631065 1158.9401780821086 374.6127607003572L1158.9401780821086 374.6127607003572Q1157.3666818154566 376.6244458007601 1154.9367255555644 377.89917695349067Q1152.48685162141 379.1938257804826 1150.3357428011773 380.7673220471343L1150.3357428011773 380.7673220471343Q1149.2004353682769 381.6436997146366 1148.1248809581602 382.2810652910019Q1147.049326548044 382.91843086736714 1145.6152540012222 383.6354671407781L1145.6152540012222 383.6354671407781ZM1141.870731240076 364.4348291527744L1141.870731240076 364.4348291527744Q1146.471713994463 360.2720352321387 1151.710062325215 357.04537200178953Q1156.9284929817059 353.8187087714404 1162.2465120095032 350.81113995796676L1162.2465120095032 350.81113995796676Q1163.3818194424039 345.9313097639202 1163.3818194424039 340.9120558500437L1163.3818194424039 340.9120558500437Q1163.3818194424039 340.0555958568029 1163.18264269979 338.4024288931055Q1162.9635482829144 336.7492619294081 1161.5294757360925 336.7492619294081L1161.5294757360925 336.7492619294081Q1159.5177906356894 336.7492619294081 1157.227258095627 339.03979446947073Q1154.9367255555644 341.3303270095334 1153.1441348720368 344.0590483833472Q1151.3515441885097 346.787769757161 1150.4751665210074 348.3612660238128L1150.4751665210074 348.3612660238128Q1148.1846339809445 352.24521250478864 1145.8144307438363 356.1889120085487Q1143.4641451809894 360.1326115123088 1141.870731240076 364.4348291527744ZM1145.177065167471 379.7714383340636L1145.177065167471 379.7714383340636Q1149.0410939741855 379.7714383340636 1151.9092390678293 376.82362254337426Q1154.7773841614728 373.8957244269463 1156.7890692618757 369.5138360894351Q1158.8007543622787 365.1518654261853 1160.0954031892707 360.76997708867407Q1161.3900520162624 356.38808875116285 1161.9477468955822 353.67928505161046L1161.9477468955822 353.67928505161046Q1159.5177906356894 354.95401620434103 1156.0720329884648 357.1847957216194Q1152.6262753412402 359.4155752388979 1149.1207646712312 362.064625915666Q1145.6152540012222 364.7136765924342 1142.8068619303626 367.442397966248Q1140.0183875337648 370.1711193400618 1139.0025861464326 372.60107559995436L1139.0025861464326 372.60107559995436L1138.0067024333619 376.3256806868389Q1139.4407749801835 377.7597532336608 1141.3130363607565 378.77555462099286Q1143.1653800670683 379.7714383340636 1145.177065167471 379.7714383340636ZM1170.2733347368535 428.8087523656664L1170.2733347368535 428.8087523656664Q1164.0988557158148 428.8087523656664 1159.3783669158597 425.80118355219275Q1154.637960441643 422.7936147387192 1152.2080041817503 417.0573245514318L1152.2080041817503 417.0573245514318Q1151.1922027944183 414.6273682915392 1150.4751665210074 411.8986469177254Q1149.7581302475965 409.1699255439116 1149.7581302475965 406.44120417009776L1149.7581302475965 406.44120417009776Q1149.7581302475965 405.584744176857 1150.1166483843017 403.43363535662417Q1150.4751665210074 401.2825265363914 1151.6303916281693 401.2825265363914L1151.6303916281693 401.2825265363914Q1152.48685162141 401.2825265363914 1152.6262753412402 402.57717536338333Q1152.7856167353314 403.8718241903753 1152.7856167353314 404.4295190696949L1152.7856167353314 404.4295190696949Q1152.7856167353314 407.87527671691964 1154.3591130019831 411.40070506119Q1155.932609268635 414.906215731199 1157.804870649208 417.7743608248427L1157.804870649208 417.7743608248427Q1159.9559794694405 421.08069475223755 1163.102972002744 423.78949845178994Q1166.2499645360476 426.5182198256037 1170.4127584566834 426.5182198256037L1170.4127584566834 426.5182198256037Q1176.009624924141 426.5182198256037 1180.7500313983576 422.65419101888926Q1185.470520198313 418.77024453791347 1189.4142197020728 412.39658877426075Q1193.357919205833 406.0229330106081 1196.524829413398 398.2749577229178Q1199.6718219467014 390.5269824352275 1201.962354486764 382.63958342770735Q1204.2528870268268 374.7521844201871 1205.7666302706943 367.94033982278336Q1207.280373514562 361.12849522537954 1207.8380683938815 356.82627758491395L1207.8380683938815 356.82627758491395L1208.9932935010436 348.7994548575639Q1207.9974097879729 351.0899873976266 1205.1890177171133 355.17311062121655Q1202.4005433205152 359.25623384480656 1198.7356912564148 363.91696962197756Q1195.0907568665762 368.5777053991486 1191.147057362816 372.74049931978425Q1187.2033578590558 376.90329324041994 1183.618176492001 379.55234391718807Q1180.0329951249466 382.2013945939562 1177.4436974709627 382.2013945939562L1177.4436974709627 382.2013945939562Q1176.009624924141 382.2013945939562 1175.5116830676054 381.48435832054525Q1175.0137412110703 380.7673220471343 1175.0137412110703 379.3332495003125L1175.0137412110703 379.3332495003125Q1175.0137412110703 377.6203295138308 1175.929954227095 374.47333698052734Q1176.8660849173816 371.3064267729624 1178.1607337443736 367.7212454059078Q1179.4553825713656 364.13606403885314 1180.7500313983576 360.98907150554965Q1182.024762551088 357.82216129798474 1182.6023751046691 356.24866503133296L1182.6023751046691 356.24866503133296Q1182.9011402185902 355.531628757922 1183.6779295147853 353.320766914905Q1184.4746364852422 351.0899873976266 1185.4107671755287 348.5006897436427Q1186.3269801915537 345.9313097639202 1187.0440164649644 343.9196246635173Q1187.7610527383754 341.90793956311444 1187.7610527383754 341.62909212345465L1187.7610527383754 341.62909212345465Q1187.7610527383754 341.1909032897035 1186.7651690253047 341.1909032897035Q1185.769285312234 341.1909032897035 1185.769285312234 340.7726321302138L1185.769285312234 340.7726321302138L1186.6257453054748 338.1833344762299Q1187.342781578886 336.17164937582703 1187.980147155251 334.1002112526399Q1188.6374304058777 332.0088554551914 1189.3544666792886 330.15651174887984L1189.3544666792886 330.15651174887984Q1189.7727378387783 329.00128664171774 1191.8640936362267 328.005402928647Q1193.935531759414 326.9896015413149 1195.2301805864058 326.9896015413149L1195.2301805864058 326.9896015413149Q1197.5207131264688 326.9896015413149 1197.5207131264688 329.5788991952988L1197.5207131264688 329.5788991952988Q1197.5207131264688 331.59058429570166 1196.9431005728875 334.3193056695155Q1196.3654880193067 337.02810936906786 1195.5090280260658 339.03979446947073L1195.5090280260658 339.03979446947073L1185.052249038823 363.85721659919335Q1184.4746364852422 365.2912891460152 1183.3990820751255 368.0797635426132Q1182.3235276650094 370.8881556134727 1182.3235276650094 372.46165188012446L1182.3235276650094 372.46165188012446Q1182.3235276650094 373.03926443370545 1182.6023751046691 373.5372062902408Q1182.9011402185902 374.0351481467762 1183.45883509791 374.0351481467762L1183.45883509791 374.0351481467762Q1184.753483924902 374.0351481467762 1186.4066508885992 372.87992303961414Q1188.0598178522969 371.7446156067135 1189.6333141189484 370.230872362846Q1191.2068103856002 368.7370467932399 1191.9238466590111 368.020010519829L1191.9238466590111 368.020010519829Q1198.6759382336309 361.26791894520943 1203.1773326167104 353.67928505161046Q1207.6986446740514 346.0707334837501 1211.8614385946871 337.7451456424788L1211.8614385946871 337.7451456424788Q1211.7220148748572 337.02810936906786 1211.7220148748572 336.47041448974824Q1211.7220148748572 335.89280193616725 1211.7220148748572 335.3151893825862L1211.7220148748572 335.3151893825862Q1211.7220148748572 332.1681968492827 1214.5104892714553 330.933301045075Q1217.3188813423146 329.7183229151287 1219.8882613220374 329.7183229151287L1219.8882613220374 329.7183229151287Q1220.9040627093693 329.7183229151287 1221.8202757253946 330.15651174887984Q1222.7564064156809 330.5747829083695 1222.7564064156809 331.73000801553155L1222.7564064156809 331.73000801553155Q1222.7564064156809 332.3076205691126 1221.6808520055645 335.1757656627563Q1220.605297595448 338.0439107564 1219.1114720258422 341.76851584328455Q1217.5977287819744 345.4931209301691 1216.3030799549826 348.7994548575639Q1215.0084311279907 352.0858711106973 1214.590159968501 353.51994365751915L1214.590159968501 353.51994365751915Q1212.5784748680983 360.98907150554965 1210.6464604647408 369.5138360894351Q1208.7144460613838 378.058518347582 1206.2048191044453 386.802377348343Q1203.6951921475072 395.546236349104 1199.9506693863611 403.43363535662417Q1196.2260642994765 411.3210343641444 1190.7088685290648 417.55526640796717Q1185.191672758653 423.78949845178994 1177.3042737511328 427.3746798188445L1177.3042737511328 427.3746798188445Q1174.2967049376593 428.8087523656664 1170.2733347368535 428.8087523656664Z " fill="#161b21" transform="matrix(0.7155962557446397,0,0,0.7155962557446397,0,39.83180677601193)"/></g></svg>